# xmcd
# 
# Track frame offsets:
#     150
#     3870
#     30486
#     53346
#     112457
#     142354
#     184639
# 
# Disc length: 2667
# 
# Revision: 0
# Processed by: cddbd v1.5.2PL0 Copyright (c) Steve Scherf et al.
# Submitted via: fre:ac v1.0.17
# 
DISCID=590a6907
DTITLE=Benjamin Blümchen - Benjamin Blümchen Folge 12
DYEAR=0
DGENRE=
TTITLE0=Titelsong
TTITLE1=Weg mit der Langeweile!
TTITLE2=Kein leichter Start
TTITLE3=Arme Frau Apfelberger
TTITLE4=Ernste Worte
TTITLE5=Ein neuer Plan
TTITLE6=Fröhliches Kaffeekränzchen
EXTD=
EXTT0=
EXTT1=
EXTT2=
EXTT3=
EXTT4=
EXTT5=
EXTT6=
PLAYORDER=
